<svg width="32" height="32" fill="none" xmlns="http://www.w3.org/2000/svg"><circle cx="16" cy="16" r="16" fill="#fff"/><path d="M23 14h-1l-2-6V7h-3l-1 1 1 1h2l1 5h-5v-2l1-1-1-1h-3l-1 1 1 1h1l2 6h-1c-1-3-2-4-5-4-3-1-5 2-5 5s2 5 5 5c2 0 4-1 5-4h4c1 3 2 4 5 4 3 1 5-2 5-5s-2-5-5-5Zm-13 6h2l-3 2c-2 0-3-1-3-3s1-3 3-3l3 2h-2l-1 1 1 1Zm8-2h-1l-1-2h3l-1 2Zm5 4c-2 0-3-1-3-3l1-2 1 1 1 1 1-1-1-2h1l1 1 1 1v1c0 2-1 3-3 3Z" fill="url(#a)"/><defs><linearGradient id="a" x1="16" y1="7" x2="16" y2="31" gradientUnits="userSpaceOnUse"><stop stop-color="#FFB60D"/><stop offset="1" stop-color="#E59317"/></linearGradient></defs></svg>