<svg width="140" height="38" fill="none" xmlns="http://www.w3.org/2000/svg"><path d="M11 23v5c0 2-1 3-3 3-1 0-2-1-2-3V9c0-3 1-4 2-4 2 0 3 1 3 4v3h6V9c0-6-3-9-9-9-5 0-8 3-8 9v18c0 6 3 9 8 9 6 0 9-3 9-9v-4h-6ZM33 0l5 36h-5l-1-6h-7l-1 6h-5l5-36h9Zm-5 7-3 18h6L28 7Zm30 29h-6V26c0-3-1-4-4-4h-2v14h-5V0h8c6 0 9 3 9 9v2c0 4-2 6-4 8 3 1 4 3 4 7v10ZM49 5h-3v11h3c2 0 3 0 3-3V9c0-2-1-4-3-4Zm26-5 6 36h-6l-1-6h-7l-1 6h-5l6-36h8Zm-4 7-3 18h6L71 7Zm15-7h-6l6 36h8l6-36h-5l-5 29-4-29Zm27 0 6 36h-6l-1-6h-7l-1 6h-5l6-36h8Zm-4 7-3 18h6l-3-18Zm25 29h6V0h-5v22l-6-22h-7v36h5V10l7 26Z" fill="#9C9C9C"/></svg>