<svg width="152" height="39" fill="none" xmlns="http://www.w3.org/2000/svg"><path fill-rule="evenodd" clip-rule="evenodd" d="M23 17h3c3 0 4 3 2 5l-2 3a7 7 0 0 0 14-1 2 2 0 1 1 5 0 12 12 0 0 1-22 8 12 12 0 0 1-22-8 2 2 0 1 1 5 0 7 7 0 0 0 14 1l-2-3c-2-2-1-5 2-5h3Z" fill="#9C9C9C"/><path d="M35 10a5 5 0 1 0 0-10 5 5 0 0 0 0 10Zm-23 0a5 5 0 1 0 0-10 5 5 0 0 0 0 10Zm67-9 2 1 1 2v24l-1 2h-3l-1-2v-1c-1 1-1 2-3 2l-3 1a8 8 0 0 1-8-5l-1-5 1-5 3-4 5-1 3 1 3 2V3l1-1 1-1Zm-7 25 4-1 1-5-1-5-4-1-4 1-1 5 1 5 4 1Zm24 4-5-1-4-3-1-6 1-5 4-4 5-1 6 1 3 4 1 5-1 6-3 3-6 1Zm0-4 4-1 1-5-1-5-4-1-3 1-2 5 2 5 3 1Zm32-16h1l1 2v16c0 3-1 6-3 7-1 2-4 3-7 3l-8-2-1-2v-2h2l1 1 3 1h3c3 0 5-2 5-5v-3l-3 3-3 1-5-2-3-3-1-5 1-6 3-3 5-1 3 1c2 0 2 1 3 2v-1l1-2h2Zm-8 16 4-2 1-4-1-5-4-1-4 1-1 5 1 4 4 2Zm23 4-8-1-1-3 1-1h3l2 1 3 1 2-1 1-2v-1h-2l-3-1-5-2-1-4 1-3c0-1 1-2 3-2l4-1a12 12 0 0 1 6 1l1 3v1h-3l-2-1-2-1-3 1-1 2 1 1 4 1 4 2 2 2 1 2-2 5-6 1Z" fill="#9C9C9C"/></svg>