<svg width="164" height="38" fill="none" xmlns="http://www.w3.org/2000/svg"><g clip-path="url(#a)"><path d="m3 30-2-1-1-2V3l1-2 2-1h14c2 0 3 1 3 2 0 2-1 3-3 3H5v8h12c1 0 2 0 2 2l-2 2H5v12l-2 1Zm25 0-2-1-1-1V2l1-1 2-1 2 1v28l-2 1Zm24-6 1 1 1 1-2 2a15 15 0 0 1-7 2c-3 0-6-1-8-3l-2-8 1-5 3-4 6-1 4 1 4 3 1 6-2 1H40l1 5 4 1h3l2-1 2-1Zm-7-12-4 2-1 4h9l-1-4-3-2Zm30 14 1 2-1 1a2 2 0 0 1-3 0l-6-6-6 6-2 1-1-1-1-1 1-2 6-7-6-6-1-2 1-1 2-1 1 1 6 6 6-6 1-1 2 1 1 1-1 2-6 6 6 7Zm24-11a7 7 0 0 1 5 7l-3 6-7 2H83l-2-1-1-2V3l1-2 2-1h10l8 2 2 6-1 4-3 3Zm-13-2h7c3 0 5-2 5-4l-1-4-4-1h-7v9Zm7 13 5-1 1-4-2-3-4-1h-7v9h7Zm18 4-2-1V1l2-1 2 1 1 1v26l-1 1-2 1Zm18 0-6-1-4-4-1-6 1-5 4-4 6-1 5 1 4 4 1 5-1 6-4 4-5 1Zm0-4c1 0 3 0 3-2 1-1 2-2 2-5l-2-4c0-2-2-2-3-2-2 0-3 0-4 2l-2 4c0 3 1 4 2 5 1 2 2 2 4 2Zm32-17 2 1v18c0 3 0 6-2 7-2 2-5 3-8 3l-8-2-1-2v-2h3l3 1 3 1c3 0 5-2 5-6v-2l-2 2-5 1-4-1-4-4-1-5 1-5 4-4 4-1 5 1 2 2v-1l1-1 2-1Zm-8 16 4-1 1-5-1-5-4-1-4 1-1 5 1 5 4 1Z" fill="#9C9C9C"/></g><defs><clipPath id="a"><path fill="#fff" d="M0 0h164v38H0z"/></clipPath></defs></svg>