<svg width="208" height="41" fill="none" xmlns="http://www.w3.org/2000/svg"><g clip-path="url(#a)"><mask id="b" style="mask-type:luminance" maskUnits="userSpaceOnUse" x="0" y="0" width="208" height="41"><path d="M0 0h208v41H0V0Z" fill="#fff"/></mask><g mask="url(#b)"><path fill-rule="evenodd" clip-rule="evenodd" d="M14 36a1 1 0 0 1-1 0v-1a14 14 0 0 1-1-4 113 113 0 0 1 0-6V10a85 85 0 0 1 1-5V4h1a9 9 0 0 1 2-1h2V1H1v2c3 0 4 1 4 2l1 3v28l-1 1v1H4v1h25l1-4-16 1Zm25-11a18 18 0 0 1 1-6l1-2a6 6 0 0 1 5-3 4 4 0 0 1 4 2l1 4a1 1 0 0 1-1 2l-4 1a297 297 0 0 0-7 2Zm16 8-8 3-5-1-2-3-1-5a1368 1368 0 0 1 19-7l-1-4-3-2-3-1-4-1-6 2c-2 0-4 2-5 3l-3 5-1 6c0 4 1 7 3 9s5 3 9 3l6-2 6-3v-1l-1-1ZM90 5l-4-4-7-1-5 1-4 2-3 3-2 5 1 4 3 2a27 27 0 0 0 6 5 59 59 0 0 1 6 3l3 6a6 6 0 0 1-2 4 7 7 0 0 1-5 2 7 7 0 0 1-6-2l-2-6h-1l-5 5c1 2 3 4 5 4l6 2 6-1 5-2 4-4 1-5v-3a9 9 0 0 0-4-5l-3-1a96 96 0 0 0-8-5l-2-2-1-2a6 6 0 0 1 0-5 5 5 0 0 1 5-3 6 6 0 0 1 5 2l2 5h1l5-4Zm26 11-2-2-3-1-3-1-5 1a12 12 0 0 0-7 7l-2 4v9l2 3 3 3 5 1c5 0 9-3 14-7l-1-1h-1c-3 3-6 4-8 4a6 6 0 0 1-5-2l-2-3a13 13 0 0 1-1-5 21 21 0 0 1 1-7l2-3a4 4 0 0 1 3-2 4 4 0 0 1 4 2l1 5 1 1 5-3-1-3Zm10 7a16 16 0 0 1 2-5l2-2 3-1 3 1 2 2 1 3v4a107 107 0 0 1-1 7v2a5 5 0 0 1-3 3l-3 1-3-1-2-2-1-3a18 18 0 0 1-1-6l1-3Zm-4 14c2 2 5 3 10 3l4-1 4-2 3-2 2-5 1-6a11 11 0 0 0-4-8c-2-2-5-3-9-3s-8 1-10 4a13 13 0 0 0-4 10c0 4 1 8 3 10Zm42-21 3 1 1 2v4a98 98 0 0 1 0 11 16 16 0 0 0 0 3l1 1v1l3 1 5-2 4-4-1-1-4 1a2 2 0 0 1-2 0v-4a68 68 0 0 1 0-6v-1a86 86 0 0 0-1-6v-3a5 5 0 0 0-5-2c-3 0-6 2-10 4h-1l-1-3-3-1-2 1-2 1a36 36 0 0 0-4 3l1 1a35 35 0 0 1 1-1h1l1-1h1l1 1v3a37 37 0 0 1 0 3v16h1l6-1-1-8V19l7-3Zm25 9a17 17 0 0 1 1-5l1-3a6 6 0 0 1 5-3 4 4 0 0 1 4 2l1 4a1 1 0 0 1-1 2l-4 1a296 296 0 0 0-7 2Zm16 8-8 3-5-1-2-3-1-4a1351 1351 0 0 1 19-8l-1-3-3-3-3-1-4-1-6 2c-2 0-4 2-5 3l-3 5-1 6c0 4 1 7 4 9 1 2 4 3 8 3l6-1 6-4v-1l-1-1Z" fill="#9C9C9C"/></g></g><defs><clipPath id="a"><path fill="#fff" d="M0 0h208v41H0z"/></clipPath></defs></svg>