<svg width="200" height="49" fill="none" xmlns="http://www.w3.org/2000/svg"><g clip-path="url(#a)" fill="#9C9C9C"><path d="m54 44-7-2c-2-1-3-3-3-5l1-3 3-1 2 1 1 1h-1l-1 1v1l1 4 4 1 4-1 2-2 1-2-1-3-3-2-3-2-5-3-3-2-1-5 3-6 7-2 6 2c2 1 3 2 3 4l-1 3-3 1h-2v-2l1-1 1-1-2-3-3-1-4 2-2 3 1 3 3 2 3 2 5 2 3 3 1 5-1 4-4 3-6 1Zm24 0-5-2-2-5V25h-2l-1-1v-1h1l5-1 1-1 1 1v15l1 3 3 1 4-1 2-2V26l-1-1h-1l-1-1v-1l5-1 2-1v18l4 2 1 1-1 1-7 1-1-1v-3l-2 2-2 1-4 1Zm20-1a1 1 0 0 1-1 0v-1l1-1h2V25l-2-1h-1v-1l1-1a25 25 0 0 0 6-1l1 1v3l3-3 3-1 3 1a4 4 0 0 1 0 5l-2 1h-2v-1l1-1-1-2h-1l-2 1-2 2v14h2l1 1v1a97 97 0 0 0-10 0Zm73 1a11 11 0 0 1-11-11 11 11 0 0 1 6-11 11 11 0 0 1 11 1l4 4 1 5-1 6-5 4-5 2Zm0-2c2 0 4-1 5-3l1-7-1-7-5-2c-2 0-4 1-4 3l-2 7 2 6c1 2 2 3 4 3Zm23 2-4-2-1-5V23h-3a1 1 0 0 1-1 0v-1h1l2-2 2-1 1-3h2v6l5-1 1 1v1l-1 1-5-1v15l1 2 2 2 2-1h2v1l-3 2h-3Zm-76-1a95 95 0 0 1 12 0v-1l-1-1h-3v-1l-1-2V23h5a1 1 0 0 0 1 0v-1h-6v-7l2-3 2-2h1V9c-3 0-5 1-7 3l-2 8v2h-4v1h4v17l-1 1h-2v1h-1l1 1Z"/><path fill-rule="evenodd" clip-rule="evenodd" d="M143 9a5 5 0 1 1-11 0 5 5 0 0 1 11 0Zm-5 3a3 3 0 1 0 0-5 3 3 0 0 0 0 5Zm-3 5v25l1 1h1l1-1v-1l7 2 6-1 4-4 1-6-1-6-4-4a9 9 0 0 0-11 1v-6h-5Zm15 22c-1 2-3 3-5 3l-3-1-2-2V25l5-2c2 0 4 1 5 3l1 6-1 7ZM13 0a2 2 0 0 1 2 0c9 6 12 13 13 24l-2 13c-2 4-4 8-8 11a2 2 0 0 1-2 0l-2-2-2 2a2 2 0 0 1-2 0c-4-3-7-7-8-11-2-4-2-8-2-13C0 13 4 6 13 0Zm4 44 5-8 2-12c0-8-2-14-8-19v15c2 1 3 3 3 5 0 3-1 5-3 5v12l1 2Zm-6 0-5-8c-2-3-2-7-2-12 0-8 2-14 8-19v15c-2 1-3 3-3 5 0 3 1 5 3 5v12l-1 2Zm3-21a3 3 0 1 0 0 5 3 3 0 0 0 0-5Z"/></g><defs><clipPath id="a"><path fill="#fff" d="M0 0h200v49H0z"/></clipPath></defs></svg>