<svg width="196" height="34" fill="none" xmlns="http://www.w3.org/2000/svg"><g clip-path="url(#a)"><path d="M22 33a7 7 0 0 1-6-3c-2 2-5 3-8 3-5 0-7-4-7-8l5-11c-2-1-4-2-5 0H0c1-2 2-4 4-4h8L7 25c0 4 1 5 3 5l5-2-2-7c0-5 3-11 7-11 2 0 4 1 4 5 0 3-2 9-5 12l1 3h2c4 0 7-6 7-11 0-6-2-5-2-7a2 2 0 0 1 1-2h1c1 0 3 2 3 8 0 8-4 15-10 15Zm-1-20c-2 0-3 4-3 9v3l4-10-1-2Zm19 20a4 4 0 0 1-3-1 4 4 0 0 1-1-3l3-15-1-1-2 1v-2l5-2a4 4 0 0 1 3 1 4 4 0 0 1 1 3l-3 15 1 1 2-1v2l-5 2Zm4-32a3 3 0 0 1 2 1 3 3 0 0 1 1 2l-1 2-3 1a3 3 0 0 1-2-1 3 3 0 0 1-1-2l2-2 2-1Zm11 27 1 2 2-1v2l-4 2c-4 0-5-3-4-5l3-18c1-6 0-6-3-6l1-2 9-1-5 27Zm27 0 1 2 2-1v2l-5 2-2-1-2-2a8 8 0 0 1-6 3c-6 0-9-5-8-12 2-6 7-11 13-11l4 1 1-1c1-6 0-6-3-6V2l10-1-5 27Zm-7-16c-3 0-5 4-6 9-1 6-1 9 3 9 2 0 4-2 5-6l2-11-4-1Zm23 21c-7 0-9-5-8-10l2-13c1-6 1-6-2-6V2l10-1-2 11 5-2c6 0 9 5 8 11-1 7-7 12-13 12Zm3-21a5 5 0 0 0-4 4l-2 8c0 5 1 7 3 7 4 0 6-4 7-10 1-5 0-9-4-9Zm20 12c0 4 1 6 5 6 2 0 5-1 6-3l1 2a13 13 0 0 1-9 4c-6 0-9-4-9-9 0-8 6-14 13-14 3 0 6 2 6 4 0 4-4 9-13 10Zm6-12c-3 0-6 4-6 10 6-1 8-5 8-7s-1-3-2-3Zm27 21-2-1-1-2a8 8 0 0 1-7 3c-6 0-8-5-7-12 1-6 6-11 13-11l3 1h6l-3 17 1 2 2-1v2l-5 2Zm-4-21c-4 0-6 4-7 9-1 6 0 9 3 9 2 0 5-2 5-6l2-11-3-1Zm27 4-2-2-1-2h-4l-1 2c0 2 1 3 3 5l3 2a7 7 0 0 1 2 6c-1 4-4 6-8 6-5 0-8-3-8-5l1-1 1-1c2 0 2 1 3 2l1 2 2 1 2-1 2-2c0-2-1-3-3-5l-3-2a6 6 0 0 1-2-6c0-2 2-5 8-5 4 0 6 2 6 4l-1 1-1 1Zm19-3h-5l-3 13c0 3 0 4 2 4l4-2v2a9 9 0 0 1-7 3c-3 0-5-3-4-7l2-13h-4v-2h4l1-6h6l-1 6h5v2Z" fill="#9C9C9C"/></g><defs><clipPath id="a"><path fill="#fff" d="M0 0h196v34H0z"/></clipPath></defs></svg>