<svg width="32" height="32" fill="none" xmlns="http://www.w3.org/2000/svg"><g clip-path="url(#a)"><path d="M16 0A115 115 0 0 0 6 1C4 1 4 2 3 3S1 4 1 6L0 9a112 112 0 0 0 1 17c0 2 1 2 2 3s1 2 3 2l3 1a112 112 0 0 0 17-1c2 0 2-1 3-2s2-1 2-3l1-3a112 112 0 0 0-1-17c0-2-1-2-2-3s-1-2-3-2l-3-1h-7Zm0 3a114 114 0 0 1 9 1l2 1 1 2 1 3a112 112 0 0 1-1 15l-1 2-2 1-3 1a113 113 0 0 1-15-1l-2-1-2-2V7l2-2 2-2h9Zm0 5a8 8 0 1 0 0 16 8 8 0 0 0 0-16Zm0 13a5 5 0 1 1 0-10 5 5 0 0 1 0 10ZM26 7a2 2 0 1 1-3 0 2 2 0 0 1 3 0Z" fill="#fff"/></g><defs><clipPath id="a"><path fill="#fff" d="M0 0h32v32H0z"/></clipPath></defs></svg>