<svg width="32" height="32" fill="none" xmlns="http://www.w3.org/2000/svg"><path d="m23 23-4 1-3 1-3-1-4-1-4 1H4l-1 2 1 1 3-1 2-1 3 1 4 1 4-1 3-1 2 1 3 1a1 1 0 0 0 1-1l-1-2h-1l-4-1Zm0-6-4 1-3 1-3-1-4-1-4 1H4l-1 2a1 1 0 0 0 1 1l3-1a5 5 0 0 1 5 0l4 1 4-1a5 5 0 0 1 5 0l3 1a1 1 0 0 0 1-1l-1-2h-1l-4-1Zm4-11a8 8 0 0 0-8 0l-3 1-3-1-4-1-4 1-1 1-1 1 1 1 3-1 2-1 3 1 4 1 4-1 3-1 2 1 3 1a1 1 0 0 0 1-1l-1-1-1-1Zm-4 5-4 1a5 5 0 0 1-6 0l-4-1-4 1-1 1-1 1a1 1 0 0 0 1 1l3-1 2-1 3 1 4 1 4-1 3-1 2 1 3 1a1 1 0 0 0 1-1l-1-1-1-1-4-1Z" fill="#FB0"/></svg>