<svg width="16" height="17" fill="none" xmlns="http://www.w3.org/2000/svg"><g clip-path="url(#a)"><path d="M0 5V3l1-1h2L2 1H1l-2 2v1l1 1Zm2 10H1a1 1 0 0 1-1 0v-1a1 1 0 0 0-1 0v1l2 2h1l1-1-1-1ZM13 1h-1l-1 1h2l1 1v2l1-1V3l-2-2Zm1 12v2h-2l-1 1 1 1h1l2-2v-1l-1-1Zm-2-2V7l-1-1-3-3a1 1 0 0 0-2 0L3 6 2 7v4l1 1 3 2a1 1 0 0 0 2 0l3-2a1 1 0 0 0 1-1Zm-6 2-3-2V8l3 1v4Zm1-5L4 6l3-1 3 1-3 2Zm4 3-3 2V9l3-1v3Z" fill="#9C9C9C"/></g><defs><clipPath id="a"><path fill="#fff" transform="translate(0 1)" d="M0 0h16v16H0z"/></clipPath></defs></svg>