<svg width="136" height="32" viewBox="0 0 136 32" fill="none" xmlns="http://www.w3.org/2000/svg">
<path d="M7.04 14.196C7.688 13.236 8.576 12.456 9.704 11.856C10.856 11.256 12.164 10.956 13.628 10.956C15.332 10.956 16.868 11.376 18.236 12.216C19.628 13.056 20.72 14.256 21.512 15.816C22.328 17.352 22.736 19.14 22.736 21.18C22.736 23.22 22.328 25.032 21.512 26.616C20.72 28.176 19.628 29.388 18.236 30.252C16.868 31.116 15.332 31.548 13.628 31.548C12.14 31.548 10.832 31.26 9.704 30.684C8.6 30.084 7.712 29.316 7.04 28.38V31.224H2V4.584H7.04V14.196ZM17.588 21.18C17.588 19.98 17.336 18.948 16.832 18.084C16.352 17.196 15.704 16.524 14.888 16.068C14.1004 15.6131 13.2055 15.377 12.296 15.384C11.384 15.384 10.52 15.624 9.704 16.104C8.912 16.56 8.264 17.232 7.76 18.12C7.28 19.008 7.04 20.052 7.04 21.252C7.04 22.452 7.28 23.496 7.76 24.384C8.264 25.272 8.912 25.956 9.704 26.436C10.52 26.892 11.384 27.12 12.296 27.12C13.232 27.12 14.096 26.88 14.888 26.4C15.704 25.92 16.352 25.236 16.832 24.348C17.336 23.46 17.588 22.404 17.588 21.18ZM28.954 8.904C28.066 8.904 27.322 8.628 26.722 8.076C26.146 7.5 25.858 6.792 25.858 5.952C25.858 5.112 26.146 4.416 26.722 3.864C27.322 3.288 28.066 3 28.954 3C29.842 3 30.574 3.288 31.15 3.864C31.75 4.416 32.05 5.112 32.05 5.952C32.05 6.792 31.75 7.5 31.15 8.076C30.574 8.628 29.842 8.904 28.954 8.904ZM31.438 11.28V31.224H26.398V11.28H31.438ZM48.226 31.224L41.458 22.728V31.224H36.418V4.584H41.458V19.74L48.154 11.28H54.706L45.922 21.288L54.778 31.224H48.226ZM55.145 21.252C55.145 19.188 55.565 17.388 56.405 15.852C57.245 14.292 58.409 13.092 59.897 12.252C61.385 11.388 63.089 10.956 65.009 10.956C67.481 10.956 69.521 11.58 71.129 12.828C72.761 14.052 73.853 15.78 74.405 18.012H68.97C68.682 17.148 68.19 16.476 67.494 15.996C66.822 15.492 65.982 15.24 64.974 15.24C63.534 15.24 62.394 15.768 61.554 16.824C60.714 17.856 60.294 19.332 60.294 21.252C60.294 23.148 60.714 24.624 61.554 25.68C62.394 26.712 63.534 27.228 64.974 27.228C67.014 27.228 68.346 26.316 68.97 24.492H74.406C73.854 26.652 72.762 28.368 71.13 29.64C69.498 30.912 67.458 31.548 65.01 31.548C63.09 31.548 61.386 31.128 59.898 30.288C58.4218 29.4362 57.2125 28.1895 56.406 26.688C55.566 25.128 55.145 23.316 55.145 21.252ZM82.138 14.376C82.756 13.3495 83.6227 12.4952 84.658 11.892C85.714 11.292 86.914 10.992 88.258 10.992V16.284H86.926C85.342 16.284 84.142 16.656 83.326 17.4C82.534 18.144 82.138 19.44 82.138 21.288V31.224H77.098V11.28H82.138V14.376ZM103.712 28.38C103.16 29.292 102.26 30.06 101.012 30.684C99.764 31.284 98.42 31.584 96.98 31.584C95.732 31.584 94.604 31.332 93.596 30.828C92.588 30.324 91.796 29.628 91.22 28.74C90.644 27.852 90.356 26.832 90.356 25.68C90.356 23.832 91.04 22.32 92.408 21.144C93.8 19.968 95.876 19.38 98.636 19.38H103.712C103.664 18.108 103.292 17.1 102.596 16.356C101.924 15.588 100.988 15.204 99.788 15.204C98.732 15.204 97.856 15.492 97.16 16.068C96.464 16.62 96.02 17.4 95.828 18.408H90.788C91.028 16.968 91.544 15.684 92.336 14.556C93.1449 13.41 94.2362 12.4923 95.504 11.892C96.824 11.244 98.3 10.92 99.932 10.92C101.612 10.92 103.124 11.268 104.468 11.964C105.803 12.6289 106.916 13.6669 107.672 14.952C108.44 16.248 108.824 17.772 108.824 19.524V31.224H103.712V28.38ZM98.456 27.516C99.296 27.516 100.112 27.336 100.904 26.976C101.72 26.616 102.392 26.076 102.92 25.356C103.448 24.636 103.712 23.784 103.712 22.8V22.656H98.924C97.772 22.656 96.908 22.884 96.332 23.34C95.78 23.796 95.504 24.396 95.504 25.14C95.504 25.86 95.756 26.436 96.26 26.868C96.788 27.3 97.52 27.516 98.456 27.516ZM119.453 15.42V31.224H114.341V15.42H112.073V11.28H114.341V10.272C114.341 7.824 115.037 6.024 116.429 4.872C117.821 3.72 119.921 3.18 122.729 3.252V7.5C121.505 7.476 120.653 7.68 120.173 8.112C119.693 8.544 119.453 9.324 119.453 10.452V11.28H126.003V6.348H131.079V11.28H135.543V15.42H131.079V25.068C131.079 25.74 131.235 26.232 131.547 26.544C131.883 26.832 132.435 26.976 133.203 26.976H135.543V31.224H132.375C128.127 31.224 126.003 29.16 126.003 25.032V15.42H119.453Z" fill="white"/>
</svg>
